<svg width="72" height="30" viewBox="0 0 72 30" fill="none" xmlns="http://www.w3.org/2000/svg">
<rect width="72" height="30" rx="10" fill="#3F9CF2"/>
<path d="M12.9005 9H18.7405L24.9405 23H17.3805L15.2805 18.36H10.8805L9.0805 23H7.6205L12.9005 9ZM14.7205 17.14L12.9005 13.08L11.3205 17.14H14.7205ZM25.7307 9H36.2507C38.1573 9 39.804 9.68 41.1907 11.04C42.564 12.4133 43.2507 14.06 43.2507 15.98C43.2507 17.9267 42.564 19.5867 41.1907 20.96C39.8173 22.32 38.1707 23 36.2507 23H25.7307V9ZM33.9307 21.84C34.6907 21.84 35.2373 21.5933 35.5707 21.1C35.8907 20.62 36.0907 19.94 36.1707 19.06C36.2373 18.4867 36.2707 17.46 36.2707 15.98C36.2707 14.8333 36.2307 13.74 36.1507 12.7C36.0707 11.9133 35.8707 11.3133 35.5507 10.9C35.2173 10.4067 34.6773 10.16 33.9307 10.16H32.7307V21.84H33.9307ZM44.2267 9H54.7467C56.6534 9 58.3001 9.68 59.6867 11.04C61.0601 12.4133 61.7467 14.06 61.7467 15.98C61.7467 17.9267 61.0601 19.5867 59.6867 20.96C58.3134 22.32 56.6667 23 54.7467 23H44.2267V9ZM52.4267 21.84C53.1867 21.84 53.7334 21.5933 54.0667 21.1C54.3867 20.62 54.5867 19.94 54.6667 19.06C54.7334 18.4867 54.7667 17.46 54.7667 15.98C54.7667 14.8333 54.7267 13.74 54.6467 12.7C54.5667 11.9133 54.3667 11.3133 54.0467 10.9C53.7134 10.4067 53.1734 10.16 52.4267 10.16H51.2267V21.84H52.4267Z" fill="black"/>
</svg>
