<svg width="176" height="30" viewBox="0 0 176 30" fill="none" xmlns="http://www.w3.org/2000/svg">
<rect width="175.932" height="30" rx="10" fill="#B9D6F2"/>
<path d="M22.64 9H28.48L34.68 23H27.12L25.02 18.36H20.62L18.82 23H17.36L22.64 9ZM24.46 17.14L22.64 13.08L21.06 17.14H24.46ZM35.4702 9H45.9902C47.8968 9 49.5435 9.68 50.9302 11.04C52.3035 12.4133 52.9902 14.06 52.9902 15.98C52.9902 17.9267 52.3035 19.5867 50.9302 20.96C49.5568 22.32 47.9102 23 45.9902 23H35.4702V9ZM43.6702 21.84C44.4302 21.84 44.9768 21.5933 45.3102 21.1C45.6302 20.62 45.8302 19.94 45.9102 19.06C45.9768 18.4867 46.0102 17.46 46.0102 15.98C46.0102 14.8333 45.9702 13.74 45.8902 12.7C45.8102 11.9133 45.6102 11.3133 45.2902 10.9C44.9568 10.4067 44.4168 10.16 43.6702 10.16H42.4702V21.84H43.6702ZM53.9663 9H64.4863C66.3929 9 68.0396 9.68 69.4263 11.04C70.7996 12.4133 71.4863 14.06 71.4863 15.98C71.4863 17.9267 70.7996 19.5867 69.4263 20.96C68.0529 22.32 66.4063 23 64.4863 23H53.9663V9ZM62.1663 21.84C62.9263 21.84 63.4729 21.5933 63.8063 21.1C64.1263 20.62 64.3263 19.94 64.4063 19.06C64.4729 18.4867 64.5063 17.46 64.5063 15.98C64.5063 14.8333 64.4663 13.74 64.3863 12.7C64.3063 11.9133 64.1063 11.3133 63.7863 10.9C63.4529 10.4067 62.9129 10.16 62.1663 10.16H60.9663V21.84H62.1663ZM86.0775 9H91.9175L98.1175 23H90.5575L88.4575 18.36H84.0575L82.2575 23H80.7975L86.0775 9ZM87.8975 17.14L86.0775 13.08L84.4975 17.14H87.8975ZM118.14 14.02C119.726 14.4467 120.913 15.0133 121.7 15.72C122.486 16.4133 122.88 17.32 122.88 18.44C122.88 19.3333 122.6 20.1333 122.04 20.84C121.48 21.5467 120.653 22.1 119.56 22.5C118.48 22.9 117.166 23.1 115.62 23.1C113.793 23.1 112.18 22.8667 110.78 22.4C109.393 21.92 108.306 21.34 107.52 20.66L108.18 19.76C108.873 20.3067 109.746 20.7733 110.8 21.16C111.853 21.5467 112.986 21.74 114.2 21.74C114.986 21.74 115.58 21.6267 115.98 21.4C116.393 21.1733 116.6 20.8533 116.6 20.44C116.6 19.72 115.886 19.16 114.46 18.76L111.86 18C110.446 17.5733 109.353 16.98 108.58 16.22C107.82 15.46 107.44 14.56 107.44 13.52C107.44 12.6533 107.713 11.8667 108.26 11.16C108.806 10.4533 109.6 9.9 110.64 9.5C111.693 9.08667 112.953 8.88 114.42 8.88C115.82 8.88 117.106 9.04 118.28 9.36C119.466 9.68 120.433 10.0667 121.18 10.52L120.52 11.44C119.893 11.08 119.14 10.7733 118.26 10.52C117.393 10.2667 116.48 10.14 115.52 10.14C114.68 10.14 114.033 10.2733 113.58 10.54C113.14 10.7933 112.92 11.1467 112.92 11.6C112.92 11.9467 113.086 12.2533 113.42 12.52C113.753 12.7733 114.386 13.0267 115.32 13.28L118.14 14.02ZM123.888 9H138.428V10.18H130.928V15.36H134.608V16.56H130.928V21.8H138.428V23H123.888V9ZM144.692 10.18H139.432V9H156.972V10.18H151.692V23H144.692V10.18Z" fill="black"/>
</svg>
