<svg width="238" height="30" viewBox="0 0 238 30" fill="none" xmlns="http://www.w3.org/2000/svg">
<rect width="238" height="30" rx="10" fill="#FFD700"/>
<path d="M29.64 9H35.48L41.68 23H34.12L32.02 18.36H27.62L25.82 23H24.36L29.64 9ZM31.46 17.14L29.64 13.08L28.06 17.14H31.46ZM42.4702 9H52.9902C54.8968 9 56.5435 9.68 57.9302 11.04C59.3035 12.4133 59.9902 14.06 59.9902 15.98C59.9902 17.9267 59.3035 19.5867 57.9302 20.96C56.5568 22.32 54.9102 23 52.9902 23H42.4702V9ZM50.6702 21.84C51.4302 21.84 51.9768 21.5933 52.3102 21.1C52.6302 20.62 52.8302 19.94 52.9102 19.06C52.9768 18.4867 53.0102 17.46 53.0102 15.98C53.0102 14.8333 52.9702 13.74 52.8902 12.7C52.8102 11.9133 52.6102 11.3133 52.2902 10.9C51.9568 10.4067 51.4168 10.16 50.6702 10.16H49.4702V21.84H50.6702ZM60.9663 9H71.4863C73.3929 9 75.0396 9.68 76.4263 11.04C77.7996 12.4133 78.4863 14.06 78.4863 15.98C78.4863 17.9267 77.7996 19.5867 76.4263 20.96C75.0529 22.32 73.4063 23 71.4863 23H60.9663V9ZM69.1663 21.84C69.9263 21.84 70.4729 21.5933 70.8063 21.1C71.1263 20.62 71.3263 19.94 71.4063 19.06C71.4729 18.4867 71.5063 17.46 71.5063 15.98C71.5063 14.8333 71.4663 13.74 71.3863 12.7C71.3063 11.9133 71.1063 11.3133 70.7863 10.9C70.4529 10.4067 69.9129 10.16 69.1663 10.16H67.9663V21.84H69.1663ZM87.9975 9H102.538V10.18H95.0375V15.36H98.7175V16.56H95.0375V21.8H102.538V23H87.9975V9ZM107.131 15.94L103.651 9H110.651L113.451 14.56L116.491 9H118.051L114.171 16.04L117.651 23H110.651L107.871 17.42L104.791 23H103.251L107.131 15.94ZM118.896 9H133.436V10.18H125.936V15.36H129.616V16.56H125.936V21.8H133.436V23H118.896V9ZM134.58 9H147.96C148.613 9 149.213 9.16667 149.76 9.5C150.32 9.82 150.76 10.26 151.08 10.82C151.413 11.3667 151.58 11.9667 151.58 12.62C151.58 13.4867 151.313 14.2733 150.78 14.98C150.246 15.6867 149.573 16.14 148.76 16.34C149.48 16.54 150.066 16.92 150.52 17.48C150.986 18.04 151.22 18.6733 151.22 19.38V23H144.52V18.66C144.52 18.2333 144.44 17.9 144.28 17.66C144.093 17.38 143.88 17.1733 143.64 17.04C143.373 16.8933 143.073 16.7867 142.74 16.72C142.393 16.6533 142.066 16.6133 141.76 16.6L141.22 16.58V23H134.58V9ZM141.92 15.42C142.4 15.42 142.84 15.3067 143.24 15.08C143.653 14.84 143.973 14.52 144.2 14.12C144.44 13.7067 144.56 13.2667 144.56 12.8C144.56 12.32 144.44 11.88 144.2 11.48C143.973 11.0667 143.653 10.74 143.24 10.5C142.84 10.26 142.4 10.14 141.92 10.14H141.22V15.44L141.92 15.42ZM162.984 21.7C163.984 21.7 164.777 21.2933 165.364 20.48C165.951 19.6667 166.331 18.68 166.504 17.52H167.744C167.557 18.96 167.084 20.1867 166.324 21.2C165.897 21.76 165.411 22.18 164.864 22.46C164.331 22.7267 163.737 22.9 163.084 22.98C162.444 23.06 161.604 23.1 160.564 23.1C159.097 23.1 157.904 22.96 156.984 22.68C156.077 22.3867 155.297 21.9133 154.644 21.26C153.364 19.98 152.724 18.22 152.724 15.98C152.724 13.62 153.297 11.8667 154.444 10.72C155.191 9.97333 156.024 9.48 156.944 9.24C157.864 9 159.071 8.88 160.564 8.88C161.937 8.88 163.051 8.98 163.904 9.18C164.771 9.36667 165.477 9.77333 166.024 10.4C166.477 10.92 166.831 11.5467 167.084 12.28C167.337 13.0133 167.484 13.74 167.524 14.46H166.384C166.331 13.86 166.184 13.2467 165.944 12.62C165.717 11.98 165.357 11.4333 164.864 10.98C164.371 10.5133 163.744 10.28 162.984 10.28C162.264 10.28 161.684 10.5933 161.244 11.22C160.857 11.7133 160.564 12.44 160.364 13.4C160.217 14.1333 160.144 14.9933 160.144 15.98C160.144 17.54 160.331 18.8 160.704 19.76C161.184 21.0533 161.944 21.7 162.984 21.7ZM168.72 9H175.24V23H168.72V9ZM186.936 14.02C188.523 14.4467 189.71 15.0133 190.496 15.72C191.283 16.4133 191.676 17.32 191.676 18.44C191.676 19.3333 191.396 20.1333 190.836 20.84C190.276 21.5467 189.45 22.1 188.356 22.5C187.276 22.9 185.963 23.1 184.416 23.1C182.59 23.1 180.976 22.8667 179.576 22.4C178.19 21.92 177.103 21.34 176.316 20.66L176.976 19.76C177.67 20.3067 178.543 20.7733 179.596 21.16C180.65 21.5467 181.783 21.74 182.996 21.74C183.783 21.74 184.376 21.6267 184.776 21.4C185.19 21.1733 185.396 20.8533 185.396 20.44C185.396 19.72 184.683 19.16 183.256 18.76L180.656 18C179.243 17.5733 178.15 16.98 177.376 16.22C176.616 15.46 176.236 14.56 176.236 13.52C176.236 12.6533 176.51 11.8667 177.056 11.16C177.603 10.4533 178.396 9.9 179.436 9.5C180.49 9.08667 181.75 8.88 183.216 8.88C184.616 8.88 185.903 9.04 187.076 9.36C188.263 9.68 189.23 10.0667 189.976 10.52L189.316 11.44C188.69 11.08 187.936 10.7733 187.056 10.52C186.19 10.2667 185.276 10.14 184.316 10.14C183.476 10.14 182.83 10.2733 182.376 10.54C181.936 10.7933 181.716 11.1467 181.716 11.6C181.716 11.9467 181.883 12.2533 182.216 12.52C182.55 12.7733 183.183 13.0267 184.116 13.28L186.936 14.02ZM192.685 9H207.225V10.18H199.725V15.36H203.405V16.56H199.725V21.8H207.225V23H192.685V9Z" fill="black"/>
</svg>
