<svg width="238" height="30" viewBox="0 0 238 30" fill="none" xmlns="http://www.w3.org/2000/svg">
<rect width="238" height="30" rx="10" fill="#FFD700"/>
<path d="M29.64 9H35.48L41.68 23H34.12L32.02 18.36H27.62L25.82 23H24.36L29.64 9ZM31.46 17.14L29.64 13.08L28.06 17.14H31.46ZM42.4702 9H52.9902C54.8968 9 56.5435 9.68 57.9302 11.04C59.3035 12.4133 59.9902 14.06 59.9902 15.98C59.9902 17.9267 59.3035 19.5867 57.9302 20.96C56.5568 22.32 54.9102 23 52.9902 23H42.4702V9ZM50.6702 21.84C51.4302 21.84 51.9768 21.5933 52.3102 21.1C52.6302 20.62 52.8302 19.94 52.9102 19.06C52.9768 18.4867 53.0102 17.46 53.0102 15.98C53.0102 14.8333 52.9702 13.74 52.8902 12.7C52.8102 11.9133 52.6102 11.3133 52.2902 10.9C51.9568 10.4067 51.4168 10.16 50.6702 10.16H49.4702V21.84H50.6702ZM60.9663 9H71.4863C73.3929 9 75.0396 9.68 76.4263 11.04C77.7996 12.4133 78.4863 14.06 78.4863 15.98C78.4863 17.9267 77.7996 19.5867 76.4263 20.96C75.0529 22.32 73.4063 23 71.4863 23H60.9663V9ZM69.1663 21.84C69.9263 21.84 70.4729 21.5933 70.8063 21.1C71.1263 20.62 71.3263 19.94 71.4063 19.06C71.4729 18.4867 71.5063 17.46 71.5063 15.98C71.5063 14.8333 71.4663 13.74 71.3863 12.7C71.3063 11.9133 71.1063 11.3133 70.7863 10.9C70.4529 10.4067 69.9129 10.16 69.1663 10.16H67.9663V21.84H69.1663ZM87.6575 9H94.4575L99.1375 19.58L103.078 9H106.078L110.678 19.34L114.518 9H116.058L110.778 23H104.718L101.818 16.44L99.3375 23H93.8575L87.6575 9ZM124.369 23.1C122.583 23.1 120.969 22.8267 119.529 22.28C118.089 21.7333 116.949 20.9267 116.109 19.86C115.283 18.78 114.869 17.4867 114.869 15.98C114.869 14.4867 115.289 13.2067 116.129 12.14C116.969 11.0733 118.103 10.2667 119.529 9.72C120.969 9.16 122.583 8.88 124.369 8.88C126.143 8.88 127.743 9.16 129.169 9.72C130.609 10.2667 131.743 11.0733 132.569 12.14C133.409 13.2067 133.829 14.4867 133.829 15.98C133.829 17.4867 133.409 18.78 132.569 19.86C131.743 20.9267 130.609 21.7333 129.169 22.28C127.743 22.8267 126.143 23.1 124.369 23.1ZM124.369 21.92C124.929 21.92 125.343 21.6667 125.609 21.16C125.836 20.7733 125.989 20.0867 126.069 19.1C126.109 18.58 126.129 17.54 126.129 15.98C126.129 14.4067 126.096 13.2933 126.029 12.64C125.989 11.84 125.843 11.2333 125.589 10.82C125.323 10.3133 124.916 10.06 124.369 10.06C123.809 10.06 123.389 10.3133 123.109 10.82C122.883 11.22 122.736 11.8267 122.669 12.64C122.616 13.3333 122.589 14.4467 122.589 15.98C122.589 17.7133 122.609 18.7533 122.649 19.1C122.703 20.02 122.849 20.7067 123.089 21.16C123.369 21.6667 123.796 21.92 124.369 21.92ZM134.814 9H148.194C148.847 9 149.447 9.16667 149.994 9.5C150.554 9.82 150.994 10.26 151.314 10.82C151.647 11.3667 151.814 11.9667 151.814 12.62C151.814 13.4867 151.547 14.2733 151.014 14.98C150.481 15.6867 149.807 16.14 148.994 16.34C149.714 16.54 150.301 16.92 150.754 17.48C151.221 18.04 151.454 18.6733 151.454 19.38V23H144.754V18.66C144.754 18.2333 144.674 17.9 144.514 17.66C144.327 17.38 144.114 17.1733 143.874 17.04C143.607 16.8933 143.307 16.7867 142.974 16.72C142.627 16.6533 142.301 16.6133 141.994 16.6L141.454 16.58V23H134.814V9ZM142.154 15.42C142.634 15.42 143.074 15.3067 143.474 15.08C143.887 14.84 144.207 14.52 144.434 14.12C144.674 13.7067 144.794 13.2667 144.794 12.8C144.794 12.32 144.674 11.88 144.434 11.48C144.207 11.0667 143.887 10.74 143.474 10.5C143.074 10.26 142.634 10.14 142.154 10.14H141.454V15.44L142.154 15.42ZM152.822 9H159.842V23H152.822V9ZM159.842 15.98L163.122 9H170.102L166.602 15.98L171.042 23H163.982L159.842 15.98ZM178.959 23.1C177.172 23.1 175.559 22.8267 174.119 22.28C172.679 21.7333 171.539 20.9267 170.699 19.86C169.872 18.78 169.459 17.4867 169.459 15.98C169.459 14.4867 169.879 13.2067 170.719 12.14C171.559 11.0733 172.692 10.2667 174.119 9.72C175.559 9.16 177.172 8.88 178.959 8.88C180.732 8.88 182.332 9.16 183.759 9.72C185.199 10.2667 186.332 11.0733 187.159 12.14C187.999 13.2067 188.419 14.4867 188.419 15.98C188.419 17.4867 187.999 18.78 187.159 19.86C186.332 20.9267 185.199 21.7333 183.759 22.28C182.332 22.8267 180.732 23.1 178.959 23.1ZM178.959 21.92C179.519 21.92 179.932 21.6667 180.199 21.16C180.426 20.7733 180.579 20.0867 180.659 19.1C180.699 18.58 180.719 17.54 180.719 15.98C180.719 14.4067 180.686 13.2933 180.619 12.64C180.579 11.84 180.432 11.2333 180.179 10.82C179.912 10.3133 179.506 10.06 178.959 10.06C178.399 10.06 177.979 10.3133 177.699 10.82C177.472 11.22 177.326 11.8267 177.259 12.64C177.206 13.3333 177.179 14.4467 177.179 15.98C177.179 17.7133 177.199 18.7533 177.239 19.1C177.292 20.02 177.439 20.7067 177.679 21.16C177.959 21.6667 178.386 21.92 178.959 21.92ZM196.26 23.1C193.847 23.1 192.12 22.7467 191.08 22.04C190.054 21.3333 189.54 20.2533 189.54 18.8V9H197.18V18.8C197.18 19.7467 197.387 20.44 197.8 20.88C198.227 21.3067 198.787 21.52 199.48 21.52C201.027 21.52 201.8 20.6133 201.8 18.8V9H202.98V18.8C202.98 19.9333 202.74 20.8133 202.26 21.44C201.78 22.0533 201.06 22.4867 200.1 22.74C199.14 22.98 197.86 23.1 196.26 23.1ZM209.211 10.18H203.951V9H221.491V10.18H216.211V23H209.211V10.18Z" fill="black"/>
</svg>
