<svg width="32" height="30" viewBox="0 0 32 30" fill="none" xmlns="http://www.w3.org/2000/svg">
<rect width="31.8214" height="30" rx="10" fill="#FFD700"/>
<path d="M23.5711 20.7588V21.3615C23.5707 21.483 23.5306 21.6014 23.4561 21.7014C23.3816 21.8015 23.2762 21.8784 23.1536 21.9221C23.0792 21.9506 22.9993 21.9649 22.9188 21.9643C22.8262 21.9642 22.7346 21.9458 22.6503 21.9105C22.5659 21.8752 22.4907 21.8236 22.4296 21.7593L20.7141 19.9813C19.6802 18.9059 18.413 18.0436 16.9947 17.4507C15.5764 16.8577 14.0389 16.5474 12.4822 16.5398V18.9506C12.4815 19.0696 12.4428 19.1858 12.3708 19.2845C12.2988 19.3832 12.1969 19.4599 12.0778 19.5052C11.959 19.5513 11.828 19.5639 11.7015 19.5414C11.575 19.5189 11.4585 19.4622 11.3668 19.3786L5.49617 13.9541C5.43503 13.898 5.3865 13.8314 5.35339 13.7579C5.32027 13.6845 5.30322 13.6057 5.30322 13.5261C5.30322 13.4466 5.32027 13.3678 5.35339 13.2943C5.3865 13.2209 5.43503 13.1542 5.49617 13.0982L11.3668 7.6737C11.4585 7.59006 11.575 7.53341 11.7015 7.51088C11.828 7.48836 11.959 7.50097 12.0778 7.54712C12.1969 7.59234 12.2988 7.66913 12.3708 7.7678C12.4428 7.86648 12.4815 7.98264 12.4822 8.10163V10.5125C15.4231 10.5125 18.2436 11.592 20.3232 13.5136C22.4028 15.4351 23.5711 18.0413 23.5711 20.7588Z" fill="black"/>
</svg>
