<svg width="25" height="25" viewBox="0 0 25 25" fill="none" xmlns="http://www.w3.org/2000/svg">
<g clip-path="url(#clip0_640_19)">
<path d="M12.5 0C10.0277 0 7.61099 0.733112 5.55538 2.10663C3.49976 3.48015 1.89761 5.43238 0.951511 7.71646C0.00541601 10.0005 -0.242126 12.5139 0.24019 14.9386C0.722505 17.3634 1.91301 19.5907 3.66117 21.3388C5.40933 23.087 7.63661 24.2775 10.0614 24.7598C12.4861 25.2421 14.9995 24.9946 17.2835 24.0485C19.5676 23.1024 21.5199 21.5002 22.8934 19.4446C24.2669 17.389 25 14.9723 25 12.5C25 9.18479 23.683 6.00537 21.3388 3.66117C18.9946 1.31696 15.8152 0 12.5 0ZM12.5 21.875C10.6458 21.875 8.83324 21.3252 7.29153 20.295C5.74982 19.2649 4.54821 17.8007 3.83863 16.0877C3.12906 14.3746 2.94341 12.4896 3.30514 10.671C3.66688 8.85246 4.55976 7.18199 5.87088 5.87087C7.182 4.55976 8.85246 3.66687 10.671 3.30514C12.4896 2.9434 14.3746 3.12906 16.0877 3.83863C17.8007 4.5482 19.2649 5.74982 20.295 7.29153C21.3252 8.83324 21.875 10.6458 21.875 12.5C21.875 14.9864 20.8873 17.371 19.1291 19.1291C17.371 20.8873 14.9864 21.875 12.5 21.875Z" fill="#FFD700"/>
<path d="M17.1875 10.9374H11.5859L13.5391 8.98426C13.8386 8.70115 14.0191 8.31456 14.0438 7.90312C14.0684 7.49169 13.9355 7.0863 13.6719 6.76942C13.5302 6.61167 13.3579 6.4844 13.1654 6.39537C12.973 6.30635 12.7644 6.25742 12.5525 6.25157C12.3405 6.24572 12.1296 6.28308 11.9325 6.36136C11.7355 6.43965 11.5564 6.55722 11.4062 6.70692L8.05078 10.0624C7.73034 10.3827 7.47615 10.763 7.30273 11.1816C7.1293 11.6001 7.04004 12.0488 7.04004 12.5018C7.04004 12.9549 7.1293 13.4036 7.30273 13.8221C7.47615 14.2407 7.73034 14.621 8.05078 14.9413L11.3281 18.2304C11.6126 18.5271 11.9992 18.7047 12.4097 18.7272C12.8202 18.7497 13.2239 18.6154 13.5391 18.3515C13.6968 18.2098 13.8241 18.0375 13.9131 17.845C14.0021 17.6526 14.0511 17.444 14.0569 17.2321C14.0628 17.0201 14.0254 16.8092 13.9471 16.6121C13.8688 16.4151 13.7513 16.236 13.6016 16.0858L11.5859 14.0624H17.1875C17.6019 14.0624 17.9993 13.8978 18.2924 13.6047C18.5854 13.3117 18.75 12.9143 18.75 12.4999C18.75 12.0855 18.5854 11.6881 18.2924 11.395C17.9993 11.102 17.6019 10.9374 17.1875 10.9374Z" fill="#FFD700"/>
</g>
<defs>
<clipPath id="clip0_640_19">
<rect width="25" height="25" fill="white"/>
</clipPath>
</defs>
</svg>
