<svg width="188" height="158" viewBox="0 0 188 158" fill="none" xmlns="http://www.w3.org/2000/svg">
<path d="M186.368 69.663C185.12 64.9062 182.832 60.1494 181.168 57.8744C180.544 56.8403 179.504 55.3926 178.464 53.738C177.216 51.8767 175.76 49.8085 174.512 47.9471C172.224 44.638 171.184 40.9153 170.768 39.6744C170.352 38.4335 170.352 36.7789 170.144 35.1244V34.9176C169.936 33.263 169.936 31.6085 168.064 29.9539C166.192 28.2994 163.904 28.5062 163.488 28.5062C163.488 28.5062 145.392 27.8857 145.184 27.8857C144.144 28.0926 143.52 28.713 143.104 29.1267C142.48 29.9539 142.48 30.988 142.48 31.4017L142.272 39.6744C142.272 39.8812 142.272 41.1221 143.104 41.9494C143.728 42.5698 144.56 42.7767 144.976 42.7767C144.976 42.7767 144.976 42.9835 145.184 42.9835H145.6C145.6 40.088 145.6 36.3653 145.808 33.263C145.808 33.263 145.808 32.0221 146.432 31.4017C146.848 30.988 147.264 30.7812 147.888 30.7812H150.384C150.592 30.7812 150.8 30.988 150.8 31.1948C150.8 31.4017 150.592 31.8153 150.384 31.8153H147.888C147.472 31.8153 147.264 32.0221 147.056 32.2289C146.64 32.6426 146.64 33.263 146.64 33.263C146.64 35.538 146.64 42.363 146.432 44.2244C146.64 44.4312 146.64 44.638 146.848 44.638C147.68 45.2585 148.512 45.4653 148.512 45.4653H148.928C148.928 43.1903 148.928 39.4676 148.928 36.7789C148.928 36.7789 148.928 35.538 149.552 34.9176C149.968 34.5039 150.384 34.2971 151.008 34.2971H153.504C153.712 34.2971 153.92 34.7107 153.92 34.9176C153.92 35.1244 153.712 35.3312 153.504 35.3312H151.008C150.592 35.3312 150.384 35.3312 150.176 35.538C149.76 35.9517 149.76 36.5721 149.76 36.5721C149.76 38.6403 149.76 45.0517 149.552 46.913C149.552 46.913 149.552 47.1198 149.76 47.1198C150.592 47.9471 151.632 47.9471 151.84 47.9471L158.288 48.1539C158.496 48.1539 159.328 48.1539 159.952 47.5335L160.368 47.1198C160.992 45.4653 161.2 44.638 160.784 42.5698C160.16 42.5698 159.536 42.5698 158.704 42.5698C158.08 42.5698 157.664 42.5698 157.04 42.5698C156.416 42.5698 155.584 42.5698 154.752 42.5698V44.0176C154.752 44.2244 154.336 44.4312 154.128 44.4312C153.92 44.4312 153.504 44.2244 153.504 44.0176V40.7085C153.504 40.5017 153.712 40.2948 154.128 40.2948C154.544 40.2948 154.544 40.9153 154.544 40.9153V41.9494C156.624 41.9494 155.584 41.9494 156.208 41.9494C159.536 41.9494 161.616 42.1562 162.448 41.3289C163.488 40.5017 163.28 39.2607 163.28 39.0539L163.488 35.7448C163.488 35.538 163.904 35.3312 164.112 35.3312C164.32 35.3312 164.736 35.538 164.736 35.7448V39.0539C164.736 39.0539 164.736 40.9153 163.488 41.9494C163.072 42.363 162.448 42.5698 161.824 42.5698H161.616C161.616 43.3971 162.24 44.8448 160.992 47.5335V47.9471C160.992 48.3607 161.2 48.9812 161.2 49.3948C161.2 50.8426 160.992 53.3244 160.576 55.5994C160.368 57.2539 160.16 58.9085 159.952 60.3562C159.744 62.6312 159.744 65.7335 159.952 68.2153C160.992 69.2494 162.448 70.9039 163.488 72.7653C163.488 72.9721 163.488 73.1789 163.28 73.3857H163.072C162.864 73.3857 162.864 73.3857 162.656 73.1789C161.408 70.4903 159.12 68.4221 158.288 67.8017C156.208 66.5607 153.712 65.5267 150.592 65.5267C147.056 65.5267 144.56 66.5607 142.688 67.8017C141.648 68.6289 139.36 70.2835 138.112 72.3517C138.112 72.5585 137.904 72.5585 137.696 72.5585H137.488C137.28 72.3517 137.28 72.1448 137.28 71.938C138.528 69.8698 140.816 68.2153 141.856 67.388C139.776 65.7335 135.616 63.4585 129.168 63.4585C126.464 63.4585 124.176 63.8721 122.304 64.6994C119.808 62.6312 117.104 60.563 114.608 59.1153C112.944 60.3562 111.072 62.0107 110.448 62.2176C110.032 62.4244 109.408 62.4244 108.576 62.4244C106.496 62.4244 103.376 61.8039 101.712 60.3562C100.464 59.1153 95.472 50.2221 95.472 49.6017V42.7767C95.472 42.5698 95.68 42.363 96.096 42.363C96.304 42.363 96.512 42.5698 96.512 42.9835V49.6017C96.512 50.0153 101.296 58.7017 102.336 59.7357C104.416 61.5971 109.2 61.8039 110.032 61.3903C110.656 61.1835 113.568 58.7017 115.648 57.0471C118.976 53.9448 122.304 49.6017 125.008 44.638C125.216 44.2244 125.424 43.3971 125.632 42.5698C126.672 41.5357 127.92 39.8812 129.168 37.3994C133.12 28.9198 128.752 21.888 126.88 19.613C125.632 17.338 123.76 15.4767 121.264 14.2357C120.64 13.8221 120.016 13.6153 119.184 13.4085C116.48 11.7539 113.152 10.9267 109.824 10.9267C99.424 10.9267 90.896 19.4062 90.896 29.7471C90.896 31.4017 91.104 31.8153 91.52 33.4698C89.44 37.813 85.28 44.2244 81.12 46.2926C70.928 45.8789 65.728 50.2221 65.52 50.4289C65.312 50.2221 63.232 48.7744 62.192 48.3607C56.576 45.2585 51.792 45.0517 49.088 45.4653C49.712 46.7062 50.752 49.3948 50.752 51.6698C50.752 51.8767 50.544 52.0835 50.336 52.0835H50.128C49.92 52.0835 49.92 51.8767 49.92 51.6698C49.712 49.188 48.464 46.7062 47.84 45.4653C47.84 45.4653 45.136 41.5357 42.016 39.6744C39.728 38.0198 37.44 37.813 35.152 37.813H34.944C34.112 37.813 30.992 38.4335 28.496 40.088C28.288 40.088 28.08 40.088 28.08 40.088C28.08 40.088 27.872 40.088 27.872 39.8812C27.664 39.6744 27.872 39.4676 27.872 39.2607C29.744 38.0198 31.616 37.1926 33.072 36.9857C34.528 34.9176 36.192 32.2289 37.024 30.1607C37.648 28.9198 38.272 27.2653 38.896 25.6107C39.728 23.3357 40.768 21.2676 41.392 20.0267C41.6 19.613 42.016 19.4062 42.224 18.9926L42.432 18.5789C42.224 16.3039 43.888 14.4426 44.304 13.8221C44.304 13.8221 44.304 13.8221 44.096 13.6153C43.472 13.2017 43.056 12.788 43.056 12.1676C42.432 10.513 43.264 9.0653 43.472 9.0653L45.136 6.16984C45.344 5.96302 45.552 5.96302 45.76 6.16984C45.968 6.37666 46.176 6.58348 46.176 6.79029L44.512 9.68575C44.512 9.68575 43.68 10.7198 44.096 11.9607C44.512 12.9948 46.176 13.8221 49.088 15.4767C49.712 15.8903 50.336 16.0971 50.96 16.5107L51.584 15.4767C51.792 15.2698 52 15.2698 52.208 15.4767C52.416 15.6835 52.624 15.8903 52.624 16.0971L51.168 19.1994C50.96 19.4062 50.752 19.4062 50.544 19.1994C50.336 18.9926 50.128 18.7857 50.128 18.5789L50.752 17.338C49.92 16.9244 49.296 16.5107 48.672 16.3039C48.048 16.0971 47.632 15.6835 47.216 15.4767C46.384 15.063 45.76 14.6494 45.136 14.2357C44.096 15.8903 43.472 16.7176 43.264 18.3721V18.9926C43.472 19.8198 44.304 20.2335 44.512 20.4403L50.128 23.5426C50.336 23.5426 51.168 24.163 52.208 23.7494H52.416C53.248 22.0948 56.368 16.7176 57.408 14.8562C57.408 14.8562 57.616 14.4426 57.616 13.8221C57.616 13.6153 57.408 13.4085 56.992 13.2017L54.704 11.9607C54.496 11.7539 54.288 11.5471 54.496 11.3403C54.704 11.1335 54.912 11.1335 55.12 11.1335L57.408 12.3744C58.032 12.5812 58.448 12.9948 58.448 13.4085C58.656 14.2358 58.24 15.2698 58.24 15.2698C56.784 17.7517 55.12 20.8539 53.872 22.9221L54.288 23.1289C54.288 23.1289 55.12 23.5426 56.16 23.3357C56.368 23.3357 56.576 23.1289 56.784 23.1289C57.616 21.4744 60.944 15.4767 62.192 13.4085C62.192 13.4085 62.608 12.788 62.4 12.3744C62.4 12.1676 62.192 11.7539 61.776 11.5471L59.488 10.3062C59.28 10.0994 59.072 9.89257 59.28 9.68575C59.488 9.47893 59.696 9.47893 59.904 9.47893L62.192 10.7198C62.816 10.9267 63.232 11.3403 63.232 11.7539C63.44 12.5812 62.816 13.8221 62.816 13.8221C61.36 16.5107 59.488 19.8198 58.032 22.3017L58.448 22.5085C58.448 22.5085 58.656 22.3017 58.656 22.5085C59.072 22.7153 59.696 22.9221 60.736 22.7153C61.776 22.5085 62.4 21.2676 62.608 21.2676L66.56 14.0289C66.768 13.8221 67.184 12.788 66.976 11.7539C66.976 11.1335 66.56 10.3062 65.728 9.68575L49.504 0.999385C49.088 0.792566 47.216 -0.448342 44.72 0.172113C42.224 0.792567 41.392 2.03348 40.56 3.4812V3.68802C39.728 5.13575 38.688 6.58348 37.856 7.41075C37.024 8.23802 34.112 11.1335 30.576 12.788C28.496 13.8221 26.416 14.8562 24.336 15.8903C22.672 16.7176 21.008 17.5448 19.968 18.1653C17.472 19.4062 13.104 22.3017 9.568 25.8176C6.864 28.5062 4.16 32.4357 2.288 37.1926C1.04 40.5017 0.208 45.4653 0 45.6721V45.8789L0.416 46.0857C0.416 46.2926 2.704 49.6017 8.944 55.3926C13.936 66.3539 21.424 72.7653 28.496 76.488C32.864 78.763 37.024 80.2107 40.352 80.8312C41.392 84.5539 44.096 93.0335 48.256 97.5835C50.544 109.993 63.024 140.808 68.848 148.461C74.672 156.113 120.848 163.558 120.016 149.702C119.184 135.638 113.776 128.193 113.776 128.193C113.776 128.193 117.936 125.504 115.232 117.024C122.928 110.82 126.672 100.686 126.672 100.686C126.88 100.686 134.16 104.408 144.56 104.615C152.464 104.822 162.24 102.961 172.016 95.7221C180.128 93.8607 183.872 91.7926 183.872 91.7926H184.288L184.496 91.5857C184.496 91.3789 186.368 86.8289 186.784 83.313C187.824 78.1426 187.408 73.5926 186.368 69.663ZM13.52 41.3289C13.312 41.1221 13.104 40.9153 13.312 40.7085C13.312 40.5017 13.52 40.2948 13.936 40.5017C19.136 41.9494 22.256 37.1926 23.504 35.3312C23.712 35.1244 23.712 34.9176 23.712 34.9176C24.544 33.6767 32.032 20.6471 32.032 20.6471C32.24 20.4403 32.448 20.4403 32.656 20.4403C32.864 20.6471 32.864 20.8539 32.864 21.0607C32.656 21.6812 25.376 34.2971 24.336 35.538C24.336 35.538 24.128 35.7448 24.128 35.9517C22.88 37.6062 19.136 42.9835 13.52 41.3289ZM42.432 67.1812C38.48 67.1812 35.152 66.1471 32.448 64.6994C24.544 60.563 21.216 52.2903 21.216 52.2903C21.216 52.0835 21.216 51.8767 21.424 51.6698C21.632 51.6698 21.84 51.6698 22.048 51.8767C22.048 52.0835 28.08 66.3539 42.64 66.3539C42.848 66.3539 43.056 66.5607 43.056 66.7676C42.848 66.9744 42.64 67.1812 42.432 67.1812ZM65.104 88.4835H64.896C64.688 88.4835 64.688 88.4835 64.48 88.2767C58.032 77.1085 47.216 75.4539 47.216 75.4539C47.008 75.4539 46.8 75.2471 46.8 75.0403C46.8 74.8335 47.008 74.6267 47.216 74.6267C47.424 74.6267 58.448 76.488 65.104 87.863C65.52 88.0698 65.312 88.2767 65.104 88.4835ZM109.408 118.265C106.288 118.058 103.168 118.472 99.424 119.506C99.216 121.988 98.8 124.677 98.176 126.745C102.336 125.711 105.872 125.504 108.368 126.124C108.576 126.124 108.784 126.538 108.576 126.745C108.576 126.952 108.16 127.158 107.952 126.952C105.664 126.331 102.336 126.538 98.176 127.572C104.416 134.604 104 139.154 104 139.361C104 139.568 103.792 139.361 103.584 139.361C103.376 139.361 103.168 139.568 103.168 139.361C103.168 139.361 103.584 134.604 97.136 127.572C93.808 125.918 85.488 126.331 85.28 126.331C85.072 126.331 84.864 126.124 84.864 125.918C84.864 125.711 85.072 125.504 85.28 125.504C85.696 125.504 93.392 125.297 97.136 126.745C97.76 124.677 98.176 121.988 98.384 119.506C95.056 117.852 85.488 117.024 85.28 117.024C85.072 117.024 84.864 116.818 84.864 116.611C84.864 116.404 85.072 116.197 85.28 116.197C85.696 116.197 94.64 117.024 98.384 118.679C98.8 114.543 98.8 111.027 98.8 111.027C98.8 110.82 99.008 110.613 99.216 110.613C99.424 110.613 99.632 110.82 99.632 111.027C99.632 111.233 99.632 114.749 99.216 118.679C102.96 117.645 106.08 117.231 109.2 117.645C109.408 117.645 109.616 117.852 109.616 118.058C109.824 118.058 109.616 118.265 109.408 118.265ZM116.272 104.615C115.856 104.615 115.44 104.615 115.024 104.615C108.16 104.615 103.792 101.513 103.584 101.306H103.376L101.504 95.7221L97.76 101.513H97.552C96.72 101.72 76.336 106.89 68.848 95.7221C68.64 95.5153 68.848 95.3085 69.056 95.1017C69.264 94.8948 69.472 95.1017 69.68 95.3085C76.544 105.443 95.264 101.306 97.344 100.686L101.296 94.4812C103.584 84.7607 101.504 72.3517 100.464 69.8698C98.176 67.8017 88.816 63.4585 88.816 63.4585C88.608 63.2517 88.4 63.0448 88.608 62.838C88.608 62.6312 89.024 62.6312 89.232 62.6312C89.648 62.838 96.72 66.1471 100.048 68.4221C99.632 66.1471 100.464 63.8721 100.464 63.8721C100.464 63.6653 100.88 63.4585 101.088 63.6653C101.296 63.6653 101.504 64.0789 101.296 64.2857C101.296 64.2857 100.256 66.9744 101.088 69.2494C101.92 69.0426 102.96 68.6289 104 68.4221C106.912 67.388 110.032 66.5607 112.944 66.9744C113.152 66.9744 113.36 67.1812 113.36 67.5948C113.36 67.8017 113.152 68.0085 112.736 68.0085C110.032 67.388 107.12 68.4221 104.208 69.4562C103.376 69.663 102.336 70.0767 101.504 70.2835C102.752 73.5926 104.624 85.7948 102.336 95.1017L104.416 101.099C105.248 101.513 109.824 104.408 116.48 103.995C116.688 103.995 116.896 104.202 116.896 104.408C116.688 104.408 116.48 104.615 116.272 104.615ZM163.28 87.4494C163.28 87.4494 156.208 93.0335 147.264 92.8267C144.144 92.8267 140.608 91.9994 137.28 89.9312C137.072 89.7244 137.072 89.5176 137.072 89.3107C137.28 89.1039 137.488 89.1039 137.696 89.1039C150.176 96.3426 162.656 86.8289 162.656 86.6221C162.864 86.4153 163.072 86.4153 163.28 86.6221C163.488 87.0357 163.488 87.2426 163.28 87.4494ZM175.76 81.2448C175.76 81.4517 175.552 81.6585 175.344 81.6585C169.52 80.2107 169.104 73.7994 168.896 71.7312C168.896 71.5244 168.896 71.3176 168.896 71.3176C168.48 69.663 168.48 54.9789 168.48 54.3585C168.48 54.1517 168.688 53.9448 168.896 53.9448C169.104 53.9448 169.312 54.1517 169.312 54.3585C169.312 54.5653 169.312 69.4562 169.52 70.9039C169.52 71.1107 169.52 71.3176 169.52 71.5244C169.728 73.5926 170.144 79.3835 175.344 80.6244C175.76 80.6244 175.76 81.038 175.76 81.2448Z" fill="#FFD700"/>
</svg>
