<svg width="124" height="30" viewBox="0 0 124 30" fill="none" xmlns="http://www.w3.org/2000/svg">
<rect width="124" height="30" rx="10" fill="#FFD700"/>
<path d="M17.82 22.7C18.82 22.7 19.6133 22.2933 20.2 21.48C20.7867 20.6667 21.1667 19.68 21.34 18.52H22.58C22.3933 19.96 21.92 21.1867 21.16 22.2C20.7333 22.76 20.2467 23.18 19.7 23.46C19.1667 23.7267 18.5733 23.9 17.92 23.98C17.28 24.06 16.44 24.1 15.4 24.1C13.9333 24.1 12.74 23.96 11.82 23.68C10.9133 23.3867 10.1333 22.9133 9.48 22.26C8.2 20.98 7.56 19.22 7.56 16.98C7.56 14.62 8.13333 12.8667 9.28 11.72C10.0267 10.9733 10.86 10.48 11.78 10.24C12.7 10 13.9067 9.88 15.4 9.88C16.7733 9.88 17.8867 9.98 18.74 10.18C19.6067 10.3667 20.3133 10.7733 20.86 11.4C21.3133 11.92 21.6667 12.5467 21.92 13.28C22.1733 14.0133 22.32 14.74 22.36 15.46H21.22C21.1667 14.86 21.02 14.2467 20.78 13.62C20.5533 12.98 20.1933 12.4333 19.7 11.98C19.2067 11.5133 18.58 11.28 17.82 11.28C17.1 11.28 16.52 11.5933 16.08 12.22C15.6933 12.7133 15.4 13.44 15.2 14.4C15.0533 15.1333 14.98 15.9933 14.98 16.98C14.98 18.54 15.1667 19.8 15.54 20.76C16.02 22.0533 16.78 22.7 17.82 22.7ZM33.0528 24.1C31.2661 24.1 29.6528 23.8267 28.2128 23.28C26.7728 22.7333 25.6328 21.9267 24.7928 20.86C23.9661 19.78 23.5528 18.4867 23.5528 16.98C23.5528 15.4867 23.9728 14.2067 24.8128 13.14C25.6528 12.0733 26.7861 11.2667 28.2128 10.72C29.6528 10.16 31.2661 9.88 33.0528 9.88C34.8261 9.88 36.4261 10.16 37.8528 10.72C39.2928 11.2667 40.4261 12.0733 41.2528 13.14C42.0928 14.2067 42.5128 15.4867 42.5128 16.98C42.5128 18.4867 42.0928 19.78 41.2528 20.86C40.4261 21.9267 39.2928 22.7333 37.8528 23.28C36.4261 23.8267 34.8261 24.1 33.0528 24.1ZM33.0528 22.92C33.6128 22.92 34.0261 22.6667 34.2928 22.16C34.5195 21.7733 34.6728 21.0867 34.7528 20.1C34.7928 19.58 34.8128 18.54 34.8128 16.98C34.8128 15.4067 34.7795 14.2933 34.7128 13.64C34.6728 12.84 34.5261 12.2333 34.2728 11.82C34.0061 11.3133 33.5995 11.06 33.0528 11.06C32.4928 11.06 32.0728 11.3133 31.7928 11.82C31.5661 12.22 31.4195 12.8267 31.3528 13.64C31.2995 14.3333 31.2728 15.4467 31.2728 16.98C31.2728 18.7133 31.2928 19.7533 31.3328 20.1C31.3861 21.02 31.5328 21.7067 31.7728 22.16C32.0528 22.6667 32.4795 22.92 33.0528 22.92ZM43.4975 10H49.3775L55.2175 17V10H56.4175V24H51.7175L44.7175 14.68V24H43.4975V10ZM57.5405 10H72.0605V11.18H64.5605V16.36H68.2405V17.56H64.5605V24H57.5405V10ZM73.2045 10H79.7245V24H73.2045V10ZM80.8608 10H94.2408C94.8941 10 95.4941 10.1667 96.0408 10.5C96.6008 10.82 97.0408 11.26 97.3608 11.82C97.6941 12.3667 97.8608 12.9667 97.8608 13.62C97.8608 14.4867 97.5941 15.2733 97.0608 15.98C96.5274 16.6867 95.8541 17.14 95.0408 17.34C95.7608 17.54 96.3474 17.92 96.8008 18.48C97.2674 19.04 97.5008 19.6733 97.5008 20.38V24H90.8008V19.66C90.8008 19.2333 90.7208 18.9 90.5608 18.66C90.3741 18.38 90.1608 18.1733 89.9208 18.04C89.6541 17.8933 89.3541 17.7867 89.0208 17.72C88.6741 17.6533 88.3474 17.6133 88.0408 17.6L87.5008 17.58V24H80.8608V10ZM88.2008 16.42C88.6808 16.42 89.1208 16.3067 89.5208 16.08C89.9341 15.84 90.2541 15.52 90.4808 15.12C90.7208 14.7067 90.8408 14.2667 90.8408 13.8C90.8408 13.32 90.7208 12.88 90.4808 12.48C90.2541 12.0667 89.9341 11.74 89.5208 11.5C89.1208 11.26 88.6808 11.14 88.2008 11.14H87.5008V16.44L88.2008 16.42ZM100.049 14.68V24H98.8686V10H104.709L107.629 15.84L109.949 10H116.349V24H109.949V13.5L105.869 24H104.129L100.049 14.68Z" fill="black"/>
</svg>
