<svg width="124" height="30" viewBox="0 0 124 30" fill="none" xmlns="http://www.w3.org/2000/svg">
<rect width="124" height="30" rx="10" fill="#FA8B24"/>
<path d="M12.56 9H23.08C24.9867 9 26.6333 9.68 28.02 11.04C29.3933 12.4133 30.08 14.06 30.08 15.98C30.08 17.9267 29.3933 19.5867 28.02 20.96C26.6467 22.32 25 23 23.08 23H12.56V9ZM20.76 21.84C21.52 21.84 22.0667 21.5933 22.4 21.1C22.72 20.62 22.92 19.94 23 19.06C23.0667 18.4867 23.1 17.46 23.1 15.98C23.1 14.8333 23.06 13.74 22.98 12.7C22.9 11.9133 22.7 11.3133 22.38 10.9C22.0467 10.4067 21.5067 10.16 20.76 10.16H19.56V21.84H20.76ZM31.0561 9H45.5961V10.18H38.0961V15.36H41.7761V16.56H38.0961V21.8H45.5961V23H31.0561V9ZM46.7397 9H53.7597V21.8H61.3597V23H46.7397V9ZM62.5014 9H77.0414V10.18H69.5414V15.36H73.2214V16.56H69.5414V21.8H77.0414V23H62.5014V9ZM83.305 10.18H78.045V9H95.585V10.18H90.305V23H83.305V10.18ZM96.5639 9H111.104V10.18H103.604V15.36H107.284V16.56H103.604V21.8H111.104V23H96.5639V9Z" fill="black"/>
</svg>
