<svg width="124" height="30" viewBox="0 0 124 30" fill="none" xmlns="http://www.w3.org/2000/svg">
<rect width="124" height="30" rx="10" fill="#FFD700"/>
<path d="M13.0642 9H23.5842C25.4908 9 27.1375 9.68 28.5242 11.04C29.8975 12.4133 30.5842 14.06 30.5842 15.98C30.5842 17.9267 29.8975 19.5867 28.5242 20.96C27.1508 22.32 25.5042 23 23.5842 23H13.0642V9ZM21.2642 21.84C22.0242 21.84 22.5708 21.5933 22.9042 21.1C23.2242 20.62 23.4242 19.94 23.5042 19.06C23.5708 18.4867 23.6042 17.46 23.6042 15.98C23.6042 14.8333 23.5642 13.74 23.4842 12.7C23.4042 11.9133 23.2042 11.3133 22.8842 10.9C22.5508 10.4067 22.0108 10.16 21.2642 10.16H20.0642V21.84H21.2642ZM31.5602 9H46.1002V10.18H38.6002V15.36H42.2802V16.56H38.6002V21.8H46.1002V23H31.5602V9ZM47.2438 9H54.2638V21.8H61.8638V23H47.2438V9ZM63.0056 9H77.5456V10.18H70.0456V15.36H73.7256V16.56H70.0456V21.8H77.5456V23H63.0056V9ZM83.8092 10.18H78.5492V9H96.0892V10.18H90.8092V23H83.8092V10.18ZM97.0681 9H111.608V10.18H104.108V15.36H107.788V16.56H104.108V21.8H111.608V23H97.0681V9Z" fill="black"/>
</svg>
