<svg width="75" height="30" viewBox="0 0 75 30" fill="none" xmlns="http://www.w3.org/2000/svg">
<rect width="75" height="30" rx="10" fill="#FFD700"/>
<path d="M8.12299 9H22.663V10.18H15.163V15.36H18.843V16.56H15.163V21.8H22.663V23H8.12299V9ZM23.8066 9H34.3266C36.2332 9 37.8799 9.68 39.2666 11.04C40.6399 12.4133 41.3266 14.06 41.3266 15.98C41.3266 17.9267 40.6399 19.5867 39.2666 20.96C37.8932 22.32 36.2466 23 34.3266 23H23.8066V9ZM32.0066 21.84C32.7666 21.84 33.3132 21.5933 33.6466 21.1C33.9666 20.62 34.1666 19.94 34.2466 19.06C34.3132 18.4867 34.3466 17.46 34.3466 15.98C34.3466 14.8333 34.3066 13.74 34.2266 12.7C34.1466 11.9133 33.9466 11.3133 33.6266 10.9C33.2932 10.4067 32.7532 10.16 32.0066 10.16H30.8066V21.84H32.0066ZM42.3027 9H48.8227V23H42.3027V9ZM55.0789 10.18H49.8189V9H67.3589V10.18H62.0789V23H55.0789V10.18Z" fill="black"/>
</svg>
