<svg width="45" height="22" viewBox="0 0 45 22" fill="none" xmlns="http://www.w3.org/2000/svg">
<g clip-path="url(#clip0_457_87)">
<path d="M30.4288 9.29883H14.5713V12.7008H30.4288V9.29883Z" fill="#FFD700"/>
<path d="M6.04861 19.9082C4.83411 19.9082 3.84961 18.9227 3.84961 17.7097V4.23073C3.84961 3.01673 4.83461 2.03223 6.04861 2.03223C7.26261 2.03223 8.24761 3.01673 8.24761 4.23073V17.7097C8.24761 18.9232 7.26261 19.9082 6.04861 19.9082Z" fill="#FFD700"/>
<path d="M11.4094 21.7705C10.1944 21.7705 9.21045 20.7855 9.21045 19.571V2.42702C9.21045 1.21302 10.1949 0.228516 11.4094 0.228516C12.6239 0.228516 13.6084 1.21352 13.6084 2.42702V19.5705C13.6089 20.7855 12.6239 21.7705 11.4094 21.7705Z" fill="#FFD700"/>
<path d="M2.8865 8.88281C1.947 9.13231 1.25 9.98131 1.25 11.0003C1.25 12.0193 1.947 12.8678 2.8865 13.1173V8.88281Z" fill="#FFD700"/>
<path d="M38.9509 2.0918C40.1659 2.0918 41.1494 3.0768 41.1494 4.2908V17.7698C41.1494 18.9838 40.1654 19.9683 38.9509 19.9683C37.7364 19.9683 36.7524 18.9833 36.7524 17.7698V4.2908C36.7524 3.0763 37.7364 2.0918 38.9509 2.0918Z" fill="#FFD700"/>
<path d="M33.5896 0.228516C34.8046 0.228516 35.7896 1.21352 35.7896 2.42802V19.572C35.7896 20.786 34.8041 21.7705 33.5896 21.7705C32.3761 21.7705 31.3911 20.7855 31.3911 19.572V2.42802C31.3906 1.21352 32.3761 0.228516 33.5896 0.228516Z" fill="#FFD700"/>
<path d="M42.1133 13.1173C43.0538 12.8678 43.7503 12.0193 43.7503 11.0003C43.7503 9.98131 43.0538 9.13231 42.1133 8.88281V13.1173Z" fill="#FFD700"/>
</g>
<defs>
<clipPath id="clip0_457_87">
<rect width="45" height="22" fill="white"/>
</clipPath>
</defs>
</svg>
