<svg width="28" height="26" viewBox="0 0 28 26" fill="none" xmlns="http://www.w3.org/2000/svg">
<g clip-path="url(#clip0_457_102)">
<path d="M8 2C8 0.89543 8.8954 0 10 0H26C27.1046 0 28 0.89543 28 2V16C28 16.3688 27.797 16.7077 27.4719 16.8817C27.1467 17.0557 26.7522 17.0366 26.4453 16.8321L22.1972 14H10C8.8954 14 8 13.1046 8 12V2Z" fill="#FFD700"/>
<path d="M7 12V7H2C0.89543 7 0 7.8954 0 9V23C0 23.3688 0.20298 23.7077 0.52814 23.8817C0.8533 24.0557 1.24784 24.0366 1.5547 23.8321L5.80278 21H18C19.1046 21 20 20.1046 20 19V15H10C8.3431 15 7 13.6569 7 12Z" fill="#FFD700"/>
</g>
<defs>
<clipPath id="clip0_457_102">
<rect width="28" height="26" fill="white"/>
</clipPath>
</defs>
</svg>
