<svg width="146" height="37" viewBox="0 0 146 37" fill="none" xmlns="http://www.w3.org/2000/svg">
<path d="M0.742773 18.45C0.742773 12.55 2.19277 8.16667 5.09277 5.3C6.95944 3.43333 9.04277 2.2 11.3428 1.6C13.6428 0.999999 16.6594 0.699998 20.3928 0.699998C23.8594 0.699998 26.6428 0.949998 28.7428 1.45C30.8761 1.91666 32.6261 2.93333 33.9928 4.5C35.1261 5.8 36.0094 7.38333 36.6428 9.25C37.3094 11.0833 37.6928 12.8833 37.7928 14.65H34.9428C34.8094 13.15 34.4428 11.6167 33.8428 10.05C33.2761 8.45 32.3761 7.08333 31.1428 5.95C29.9094 4.78333 28.3428 4.2 26.4428 4.2C24.6761 4.2 23.2094 4.98333 22.0428 6.55C21.0428 7.91666 20.3261 9.73333 19.8928 12C19.4928 14 19.2928 16.15 19.2928 18.45C19.2928 22.2167 19.7594 25.3667 20.6928 27.9C21.9261 31.1333 23.8428 32.75 26.4428 32.75V18.9H41.7428V36C36.9428 36 31.5094 36.0667 25.4428 36.2L20.3928 36.25C16.7261 36.25 13.7428 35.9 11.4428 35.2C9.17611 34.4667 7.22611 33.2833 5.59277 31.65C2.35944 28.4167 0.742773 24.0167 0.742773 18.45ZM47.9615 19.95L37.1115 0.999998H56.7115L63.9115 15.3L70.9115 0.999998H74.7615L65.4615 19.95V36H47.9615V19.95ZM79.8646 12.7V36H76.9146V0.999998H91.5146L98.8146 15.6L104.615 0.999998H120.615V36H104.615V9.75L94.4146 36H90.0646L79.8646 12.7ZM145.256 0.449999V36H128.906V8.35L123.106 9.9V6.35L145.256 0.449999Z" fill="#FFD700"/>
</svg>
