<svg width="32" height="29" viewBox="0 0 32 29" fill="none" xmlns="http://www.w3.org/2000/svg">
<g clip-path="url(#clip0_528_29)">
<path fill-rule="evenodd" clip-rule="evenodd" d="M11.6549 29.0768H4.31959C3.92756 29.0768 3.60938 28.7596 3.60938 28.3688V11.5253L15.9945 4.68164L28.3796 11.5253V28.3688C28.3796 28.7596 28.0614 29.0768 27.6693 29.0768H20.3341V16.6116C20.3341 16.2207 20.0159 15.9036 19.6238 15.9036H12.3638C11.9718 15.9036 11.6536 16.2207 11.6536 16.6116V29.0768H11.6549Z" fill="#FFD700"/>
<path d="M1.60924 10.8029C1.09076 10.8029 0.587928 10.5296 0.318037 10.0453C-0.0768356 9.33452 0.180252 8.441 0.89331 8.04736L15.2795 0.0977318C15.9925 -0.295907 16.8903 -0.0396231 17.2837 0.671207C17.6786 1.38062 17.4215 2.27556 16.7085 2.6692L2.32229 10.6188C2.09502 10.7434 1.85069 10.8029 1.60924 10.8029Z" fill="#FFD700"/>
<path d="M1.60924 10.8029C1.09076 10.8029 0.587928 10.5296 0.318037 10.0453C-0.0768356 9.33452 0.180252 8.441 0.89331 8.04736L15.2795 0.0977318C15.9925 -0.295907 16.8903 -0.0396231 17.2837 0.671207C17.6786 1.38062 17.4215 2.27556 16.7085 2.6692L2.32229 10.6188C2.09502 10.7434 1.85069 10.8029 1.60924 10.8029Z" fill="#FFD700"/>
<path d="M30.3793 10.8026C30.1378 10.8026 29.8921 10.7432 29.6662 10.6185L15.28 2.66892C14.567 2.27528 14.3099 1.38034 14.7048 0.67093C15.0996 -0.0384827 15.9974 -0.29622 16.709 0.0974549L31.0952 8.04708C31.8083 8.44072 32.0654 9.33566 31.6705 10.0451C31.4006 10.5293 30.8978 10.8026 30.3793 10.8026Z" fill="#FFD700"/>
<path d="M16.7087 0.0966564L31.0949 8.04628C31.8079 8.43992 32.065 9.33486 31.6701 10.0443C31.4003 10.5285 30.8974 10.8018 30.3789 10.8018C30.1375 10.8018 29.8917 10.7424 29.6659 10.6177L15.2797 2.66812C15.0283 2.52935 14.8337 2.32828 14.7044 2.09464C14.4672 1.66559 14.4488 1.12891 14.7044 0.668714C14.8394 0.426575 15.0311 0.238245 15.2541 0.109377C15.3067 0.0796405 15.3607 0.0527361 15.4147 0.0286625C15.5965 -0.0478033 15.7925 -0.0888672 15.9899 -0.0888672C16.1874 -0.0888672 16.3877 -0.0506345 16.578 0.0314935C16.622 0.0499016 16.6661 0.0711402 16.7087 0.0952138L16.7087 0.0966564Z" fill="#FFD700"/>
</g>
<defs>
<clipPath id="clip0_528_29">
<rect width="32" height="29" fill="white"/>
</clipPath>
</defs>
</svg>
