<svg width="21" height="21" viewBox="0 0 21 21" fill="none" xmlns="http://www.w3.org/2000/svg">
<g clip-path="url(#clip0_540_276)">
<path d="M10.4998 7.69133C11.3053 7.69133 11.9582 7.03814 11.9582 6.23238C11.9582 5.42663 11.3053 4.77344 10.4998 4.77344C9.69442 4.77344 9.0415 5.42663 9.0415 6.23238C9.0415 7.03814 9.69442 7.69133 10.4998 7.69133Z" fill="black"/>
<path d="M11.7133 10.2295V15.0382C11.7133 15.3601 11.5855 15.6688 11.3579 15.8965C11.1304 16.1241 10.8218 16.252 10.5 16.252C10.1782 16.252 9.86954 16.1241 9.642 15.8965C9.41445 15.6688 9.28662 15.3601 9.28662 15.0382V10.2295C9.28662 9.90754 9.41445 9.59879 9.642 9.37115C9.86954 9.14351 10.1782 9.01562 10.5 9.01562C10.8218 9.01562 11.1304 9.14351 11.3579 9.37115C11.5855 9.59879 11.7133 9.90754 11.7133 10.2295Z" fill="black"/>
<path d="M10.5 0C4.7012 0 0 4.70318 0 10.5044C0 16.3057 4.7012 21.0088 10.5 21.0088C16.2988 21.0088 21 16.3057 21 10.5044C21 4.70318 16.2988 0 10.5 0ZM16.6045 16.6115C15.8053 17.4247 14.8531 18.0716 13.8027 18.5147C12.7524 18.9579 11.6247 19.1885 10.4848 19.1934C9.34483 19.1982 8.21522 18.9772 7.16113 18.543C6.10703 18.1089 5.14932 17.4701 4.34326 16.6637C3.53721 15.8574 2.89876 14.8992 2.46477 13.8447C2.03078 12.7902 1.80984 11.6601 1.8147 10.5197C1.81956 9.37926 2.05012 8.25111 2.49308 7.20031C2.93604 6.14951 3.58263 5.19688 4.39553 4.39738C5.19469 3.58414 6.14692 2.93728 7.19728 2.49413C8.24763 2.05098 9.37532 1.82032 10.5152 1.81546C11.6552 1.8106 12.7848 2.03163 13.8389 2.46581C14.893 2.89998 15.8507 3.53869 16.6567 4.34509C17.4628 5.15149 18.1012 6.1096 18.5352 7.16414C18.9692 8.21868 19.1902 9.34876 19.1853 10.4892C19.1804 11.6296 18.9499 12.7577 18.5069 13.8085C18.064 14.8593 17.4174 15.812 16.6045 16.6115Z" fill="black"/>
<path d="M10.5 0C4.7012 0 0 4.70318 0 10.5044C0 16.3057 4.7012 21.0088 10.5 21.0088C16.2988 21.0088 21 16.3057 21 10.5044C21 4.70318 16.2988 0 10.5 0ZM16.6045 16.6115C15.8053 17.4247 14.8531 18.0716 13.8027 18.5147C12.7524 18.9579 11.6247 19.1885 10.4848 19.1934C9.34483 19.1982 8.21522 18.9772 7.16113 18.543C6.10703 18.1089 5.14932 17.4701 4.34326 16.6637C3.53721 15.8574 2.89876 14.8992 2.46477 13.8447C2.03078 12.7902 1.80984 11.6601 1.8147 10.5197C1.81956 9.37926 2.05012 8.25111 2.49308 7.20031C2.93604 6.14951 3.58263 5.19688 4.39553 4.39738C5.19469 3.58414 6.14692 2.93728 7.19728 2.49413C8.24763 2.05098 9.37532 1.82032 10.5152 1.81546C11.6552 1.8106 12.7848 2.03163 13.8389 2.46581C14.893 2.89998 15.8507 3.53869 16.6567 4.34509C17.4628 5.15149 18.1012 6.1096 18.5352 7.16414C18.9692 8.21868 19.1902 9.34876 19.1853 10.4892C19.1804 11.6296 18.9499 12.7577 18.5069 13.8085C18.064 14.8593 17.4174 15.812 16.6045 16.6115Z" fill="black"/>
</g>
<defs>
<clipPath id="clip0_540_276">
<rect width="21" height="21" fill="white"/>
</clipPath>
</defs>
</svg>
