<svg width="39" height="31" viewBox="0 0 39 31" fill="none" xmlns="http://www.w3.org/2000/svg">
<path d="M10.9362 8.84021L8.10243 8.51166C7.93816 8.51166 7.77388 8.38845 7.73281 8.22418L6.54181 5.63683C6.25433 5.0208 5.35081 5.0208 5.1044 5.63683L3.9134 8.22418C3.83126 8.38845 3.70805 8.47059 3.54377 8.51166L0.710014 8.84021C0.0118413 8.92235 -0.234573 9.74373 0.258255 10.2366L2.35277 12.1668C2.47598 12.29 2.51705 12.4543 2.51705 12.6186L1.94208 15.4112C1.81888 16.0684 2.51705 16.6023 3.13308 16.2737L5.59722 14.8774C5.7615 14.7952 5.92578 14.7952 6.09005 14.8774L8.55419 16.2737C9.17023 16.6023 9.8684 16.1094 9.74519 15.4112L9.17023 12.6186C9.12916 12.4543 9.2113 12.29 9.3345 12.1668L11.429 10.2366C11.8808 9.74373 11.6344 8.88128 10.9362 8.84021Z" fill="#FFD700"/>
<path d="M9.95054 19.3125H1.69567C1.1207 19.3125 0.668945 19.7643 0.668945 20.3392V29.5387C0.668945 30.1136 1.1207 30.5654 1.69567 30.5654H9.95054C10.5255 30.5654 10.9773 30.1136 10.9773 29.5387V20.3392C10.9773 19.7643 10.5255 19.3125 9.95054 19.3125Z" fill="#FFD700"/>
<path d="M24.6125 3.66541L21.7787 3.33686C21.6144 3.33686 21.4502 3.21365 21.4091 3.04937L20.2181 0.462026C19.9306 -0.154009 19.0271 -0.154009 18.7807 0.462026L17.5897 3.04937C17.5075 3.21365 17.3843 3.29579 17.22 3.33686L14.3863 3.66541C13.6881 3.74755 13.4417 4.56892 13.9345 5.06175L16.029 6.99199C16.1522 7.1152 16.1933 7.27948 16.1933 7.44375L15.6184 10.2364C15.4951 10.8935 16.1933 11.4274 16.8094 11.0989L19.2735 9.70255C19.4378 9.62041 19.602 9.62041 19.7663 9.70255L22.2305 11.0989C22.8465 11.4274 23.5447 10.9346 23.4215 10.2364L22.8465 7.44375C22.8054 7.27948 22.8876 7.1152 23.0108 6.99199L25.1053 5.06175C25.557 4.56892 25.2696 3.74755 24.6125 3.66541Z" fill="#FFD700"/>
<path d="M23.6264 14.1377H15.3304C14.7555 14.1377 14.3037 14.5895 14.3037 15.1644V29.5386C14.3037 30.1135 14.7555 30.5653 15.3304 30.5653H23.5853C24.1603 30.5653 24.612 30.1135 24.612 29.5386V15.1644C24.6531 14.5895 24.1603 14.1377 23.6264 14.1377Z" fill="#FFD700"/>
<path d="M38.2882 11.3861L35.4545 11.0576C35.2902 11.0576 35.1259 10.9344 35.0849 10.7701L33.8939 8.18273C33.6064 7.56669 32.7029 7.56669 32.4564 8.18273L31.2654 10.7701C31.1833 10.9344 31.0601 11.0165 30.8958 11.0576L28.0621 11.3861C27.3639 11.4682 27.1175 12.2896 27.6103 12.7825L29.7048 14.7127C29.828 14.8359 29.8691 15.0002 29.8691 15.1645L29.2941 17.9571C29.1709 18.6143 29.8691 19.1481 30.4851 18.8196L32.9493 17.4233C33.1136 17.3411 33.2778 17.3411 33.4421 17.4233L35.9062 18.8196C36.5223 19.1481 37.2204 18.6553 37.0972 17.9571L36.5223 15.1645C36.4812 15.0002 36.5633 14.8359 36.6866 14.7127L38.7811 12.7825C39.2328 12.3307 38.9453 11.4682 38.2882 11.3861Z" fill="#FFD700"/>
<path d="M37.2616 21.9004H29.0067C28.4317 21.9004 27.98 22.3521 27.98 22.9271V29.5803C27.98 30.1553 28.4317 30.607 29.0067 30.607H37.2616C37.8365 30.607 38.2883 30.1553 38.2883 29.5803V22.9271C38.3294 22.3521 37.8365 21.9004 37.2616 21.9004Z" fill="#FFD700"/>
</svg>
