<svg width="33" height="31" viewBox="0 0 33 31" fill="none" xmlns="http://www.w3.org/2000/svg">
<g clip-path="url(#clip0_457_81)">
<path d="M7.64353 7.54737H27.1039L25.0943 1.96954C24.4928 0.300583 22.7142 -0.541464 21.1227 0.0893495L2.17928 7.59567C0.587714 8.22721 -0.215285 10.0908 0.386277 11.7605L4.20259 22.3502V11.1549C4.20259 9.16081 5.7419 7.54737 7.64353 7.54737Z" fill="#FFD700"/>
<path d="M29.0751 8.65137H8.82407C6.76295 8.65137 5.08545 10.4097 5.08545 12.5718V25.0367C5.08545 27.1987 6.76295 28.9571 8.82407 28.9571H29.0751C31.1362 28.9571 32.8137 27.1995 32.8137 25.0367V12.5718C32.8137 10.4104 31.1362 8.65137 29.0751 8.65137ZM8.20807 13.8997C8.20807 13.1384 8.79658 12.5213 9.52258 12.5213H15.4385C16.1645 12.5213 16.753 13.1384 16.753 13.8997V18.3955C16.753 19.1575 16.1645 19.7739 15.4385 19.7739H9.52258C8.79658 19.7739 8.20807 19.1575 8.20807 18.3955V13.8997ZM29.0778 14.855H19.9355C19.391 14.855 18.9496 14.3914 18.9496 13.8204C18.9496 13.2502 19.391 12.7866 19.9355 12.7866H29.0778C29.6223 12.7866 30.0644 13.2502 30.0644 13.8204C30.0637 14.3914 29.6223 14.855 29.0778 14.855ZM30.0637 17.7704C30.0637 18.3407 29.6216 18.8042 29.0771 18.8042H19.9355C19.391 18.8042 18.9496 18.3407 18.9496 17.7704C18.9496 17.1987 19.391 16.7352 19.9355 16.7352H29.0778C29.6223 16.7359 30.0637 17.1987 30.0637 17.7704ZM29.0751 27.5779H8.82407C7.48757 27.5779 6.40064 26.4382 6.40064 25.0367V22.9553H31.4985V25.0367C31.4985 26.4382 30.4109 27.5779 29.0751 27.5779Z" fill="#FFD700"/>
</g>
<defs>
<clipPath id="clip0_457_81">
<rect width="33" height="31" fill="white"/>
</clipPath>
</defs>
</svg>
