<svg width="29" height="30" viewBox="0 0 29 30" fill="none" xmlns="http://www.w3.org/2000/svg">
<g clip-path="url(#clip0_454_45)">
<path d="M27.1873 5.81663V4.59214C27.1873 3.74724 26.5107 3.06152 25.6769 3.06152C24.8432 3.06152 24.1665 3.74724 24.1665 4.59214V5.81663H27.1873Z" fill="#FFD700"/>
<path d="M24.1665 6.42871V23.0052C24.1665 23.2195 24.2118 23.4308 24.2964 23.6267L25.402 26.143C25.4504 26.2532 25.5591 26.3236 25.6769 26.3236C25.7947 26.3236 25.9035 26.2532 25.9518 26.143C25.9518 26.143 27.0544 23.6267 27.0574 23.6267C27.145 23.4308 27.1873 23.2195 27.1873 23.0052V6.42871H24.1665Z" fill="#FFD700"/>
<path d="M2.71899 2.4491V3.67359H2.11483C1.7191 3.67971 1.71608 4.27971 2.11483 4.28583H4.53149C4.64326 4.28583 4.73389 4.22155 4.78826 4.13277C4.91514 4.32563 4.75805 4.59808 4.53149 4.59196H2.71899V6.73481H2.11483C1.7191 6.74094 1.71608 7.34094 2.11483 7.34706H4.53149C4.64326 7.34706 4.73389 7.28277 4.78826 7.194C4.91514 7.38686 4.75805 7.6593 4.53149 7.65318H2.71899V9.79604H2.11483C1.7191 9.80216 1.71608 10.4022 2.11483 10.4083H4.53149C4.64326 10.4083 4.73389 10.344 4.78826 10.2552C4.91514 10.4481 4.75805 10.7205 4.53149 10.7144H2.71899V12.8573H2.11483C1.7191 12.8634 1.71608 13.4634 2.11483 13.4695H4.53149C4.64326 13.4695 4.73389 13.4052 4.78826 13.3164C4.91514 13.5093 4.75805 13.7818 4.53149 13.7756H2.71899V15.9185H2.11483C1.7191 15.9246 1.71608 16.5246 2.11483 16.5307H4.53149C4.64326 16.5307 4.73389 16.4664 4.78826 16.3777C4.91514 16.5705 4.75805 16.843 4.53149 16.8369H2.71899V18.9797H2.11483C1.7191 18.9858 1.71608 19.5858 2.11483 19.592H4.53149C4.64326 19.592 4.73389 19.5277 4.78826 19.4389C4.91514 19.6318 4.75805 19.9042 4.53149 19.8981H2.71899V22.0409H2.11483C1.7191 22.0471 1.71608 22.6471 2.11483 22.6532H4.53149C4.64326 22.6532 4.73389 22.5889 4.78826 22.5001C4.91514 22.693 4.75805 22.9654 4.53149 22.9593H2.71899V25.1022H2.11483C1.7191 25.1083 1.71608 25.7083 2.11483 25.7144H4.53149C4.64326 25.7144 4.73389 25.6501 4.78826 25.5613C4.91514 25.7542 4.75805 26.0267 4.53149 26.0205H2.71899V26.9389C2.71899 27.6154 3.25972 28.1634 3.92733 28.1634H6.04191V1.22461H3.92733C3.25972 1.22461 2.71899 1.77257 2.71899 2.4491Z" fill="#FFD700"/>
<path d="M20.5418 1.22461H6.646V28.1634H20.5418C21.7079 28.1634 22.6564 27.2022 22.6564 26.0205V3.36747C22.6564 2.18583 21.7079 1.22461 20.5418 1.22461ZM16.6147 25.1022H12.0835C11.9173 25.1022 11.7814 24.9644 11.7814 24.796C11.7814 24.6277 11.9173 24.4899 12.0835 24.4899H16.6147C17.0105 24.496 17.0135 25.096 16.6147 25.1022ZM18.1252 23.5716H10.5731C10.1774 23.5654 10.1743 22.9654 10.5731 22.9593H18.1252C18.5209 22.9654 18.5239 23.5654 18.1252 23.5716ZM19.3335 9.79604C19.3335 9.96441 19.1976 10.1022 19.0314 10.1022H9.66683C9.50068 10.1022 9.36475 9.96441 9.36475 9.79604V5.81645C9.36475 5.64808 9.50068 5.51032 9.66683 5.51032H19.0314C19.1976 5.51032 19.3335 5.64808 19.3335 5.81645V9.79604Z" fill="#FFD700"/>
</g>
<defs>
<clipPath id="clip0_454_45">
<rect width="29" height="30" fill="white"/>
</clipPath>
</defs>
</svg>
