<svg width="15" height="18" viewBox="0 0 15 18" fill="none" xmlns="http://www.w3.org/2000/svg">
<path d="M13.7229 2.27053H10.0916C9.8788 0.961672 8.74807 0 7.4218 0C6.09552 0 4.96483 0.961651 4.75201 2.27053H1.12072C0.46918 2.30682 -0.0314389 2.86352 0.00154019 3.51506V4.88331C0.00154019 4.9996 0.0477257 5.11176 0.130201 5.19425C0.212676 5.27674 0.324841 5.32291 0.441138 5.32291H14.4024C14.5186 5.32291 14.6308 5.27673 14.7133 5.19425C14.7958 5.11178 14.842 4.99961 14.842 4.88331V3.51506C14.8749 2.86352 14.3744 2.30681 13.7229 2.27053ZM7.4218 0.88085C8.26221 0.88085 8.99457 1.45488 9.19663 2.27053H5.64705C5.84911 1.45486 6.5814 0.88085 7.4218 0.88085ZM1.34748 6.2029V16.0206C1.34748 17.1134 2.23325 18 3.32686 18H11.5165C12.6101 18 13.4959 17.1134 13.4959 16.0206V6.2029H1.34748ZM5.44242 16.236C5.44242 16.4793 5.2453 16.6764 5.00284 16.6764C4.75955 16.6764 4.56243 16.4793 4.56243 16.236V7.96713C4.56243 7.72384 4.75954 7.52673 5.00284 7.52673C5.2453 7.52673 5.44242 7.72384 5.44242 7.96713V16.236ZM7.86138 16.236C7.86138 16.4793 7.66509 16.6764 7.4218 16.6764C7.1785 16.6764 6.98221 16.4793 6.98221 16.236V7.96713C6.98221 7.72384 7.1785 7.52673 7.4218 7.52673C7.66509 7.52673 7.86138 7.72384 7.86138 7.96713V16.236ZM10.2803 16.236H10.2812C10.2812 16.4793 10.084 16.6764 9.84076 16.6764C9.59829 16.6764 9.40118 16.4793 9.40118 16.236V7.96713C9.40118 7.72384 9.59829 7.52673 9.84076 7.52673C10.084 7.52673 10.2812 7.72384 10.2812 7.96713L10.2803 16.236Z" fill="#F53C4A"/>
</svg>
